<?xml version="1.0" encoding="UTF-8" standalone="no"?>
<svg
   xmlns:dc="http://purl.org/dc/elements/1.1/"
   xmlns:cc="http://creativecommons.org/ns#"
   xmlns:rdf="http://www.w3.org/1999/02/22-rdf-syntax-ns#"
   xmlns:svg="http://www.w3.org/2000/svg"
   xmlns="http://www.w3.org/2000/svg"
   version="1.1"
   id="svg2"
   xml:space="preserve"
   width="1450.1418"
   height="345.34494"
   viewBox="0 0 1450.1418 345.34494"><metadata
     id="metadata8"><rdf:RDF><cc:Work
         rdf:about=""><dc:format>image/svg+xml</dc:format><dc:type
           rdf:resource="http://purl.org/dc/dcmitype/StillImage" /><dc:title></dc:title></cc:Work></rdf:RDF></metadata><defs
     id="defs6" /><g
     id="g10"
     transform="matrix(1.3333333,0,0,1.3333333,0,7.9669566e-6)"><g
       id="g12"><g
         id="g14"><path
           d="M 5.133,44.262 H 219.617 V 154.824 H 5.133 Z"
           style="fill:#007f00;fill-opacity:1;fill-rule:nonzero;stroke:#1a1a1a;stroke-width:1.26661;stroke-linecap:butt;stroke-linejoin:miter;stroke-miterlimit:4;stroke-dasharray:none;stroke-opacity:1"
           id="path16" /></g><g
         id="g18"><path
           d="M 220.848,44.262 H 435.332 V 154.824 H 220.848 Z"
           style="fill:#339866;fill-opacity:1;fill-rule:nonzero;stroke:#1a1a1a;stroke-width:1.26661;stroke-linecap:butt;stroke-linejoin:miter;stroke-miterlimit:4;stroke-dasharray:none;stroke-opacity:1"
           id="path20" /></g><g
         id="g22"><path
           d="M 436.562,44.262 H 651.046 V 154.824 H 436.562 Z"
           style="fill:#ccffcc;fill-opacity:1;fill-rule:nonzero;stroke:#1a1a1a;stroke-width:1.26661;stroke-linecap:butt;stroke-linejoin:miter;stroke-miterlimit:4;stroke-dasharray:none;stroke-opacity:1"
           id="path24" /></g><g
         id="g26"><path
           d="M 652.273,44.262 H 866.757 V 154.824 H 652.273 Z"
           style="fill:#ff9800;fill-opacity:1;fill-rule:nonzero;stroke:#1a1a1a;stroke-width:1.26661;stroke-linecap:butt;stroke-linejoin:miter;stroke-miterlimit:4;stroke-dasharray:none;stroke-opacity:1"
           id="path28" /></g><g
         id="g30"><path
           d="m 867.988,44.262 h 214.484 V 154.824 H 867.988 Z"
           style="fill:#ff6600;fill-opacity:1;fill-rule:nonzero;stroke:#1a1a1a;stroke-width:1.26661;stroke-linecap:butt;stroke-linejoin:miter;stroke-miterlimit:4;stroke-dasharray:none;stroke-opacity:1"
           id="path32" /></g><text
         transform="translate(67.763718,89.241766)"
         style="font-variant:normal;font-weight:normal;font-size:30px;font-family:'Bitstream Vera Sans';-inkscape-font-specification:BitstreamVeraSans-Roman;writing-mode:lr-tb;fill:#000000;fill-opacity:1;fill-rule:nonzero;stroke:none"
         id="text56"><tspan
           x="0 17.610001 36.599998 55.619999 63.93 72.239998"
           y="0"
           id="tspan34">Public</tspan><tspan
           x="-13.76952 9.3304796 27.66048 56.880482 75.240479 83.550484"
           y="37.5"
           id="tspan36">Domain</tspan><tspan
           x="224.26125 246.70125 265.03125 284.02124"
           y="-19.240709"
           id="tspan38">Non-</tspan><tspan
           x="184.21242 201.82242 213.52242 231.85242 243.61243 262.06241 278.53241 290.38242 298.69241 316.42242"
           y="18.259291"
           id="tspan40">Protective</tspan><tspan
           x="158.75343 176.00343 199.61343 218.63342 247.22343 263.93344 272.24344 288.71344 307.16342 326.15344 341.75342"
           y="55.759289"
           id="tspan42">FOSSLicense</tspan><tspan
           x="607.64935 625.25934 636.95935 655.28937 674.30933 686.63934 694.94934 713.39935 725.15936 743.51935 755.93933"
           y="-0.38820001"
           id="tspan44">Proprietary</tspan><tspan
           x="634.16302 650.87299 659.18298 675.65302 694.10303 713.09302 728.69299"
           y="37.111801"
           id="tspan46">License</tspan><tspan
           x="399.92624 417.53625 429.23624 447.56625 459.32626 477.77625 494.24625 506.09625 514.40625 532.13623"
           y="-0.41747999"
           id="tspan48">Protective</tspan><tspan
           x="374.46725 391.71725 415.32727 434.34726 453.36725 462.87726 479.58725 487.89725 504.36725 522.81726 541.80725 557.49725"
           y="37.08252"
           id="tspan50">FOSS License</tspan><tspan
           x="865.66803 879.61804 891.94806 910.30804 929.32806"
           y="0.029279999"
           id="tspan52">Trade</tspan><tspan
           x="858.78333 877.80328 896.2533 912.72333 924.48328 942.93329"
           y="37.529282"
           id="tspan54">Secret</tspan></text><text
         transform="translate(8.115833,210.97355)"
         style="font-variant:normal;font-weight:normal;font-size:30px;font-family:'Bitstream Vera Sans';-inkscape-font-specification:BitstreamVeraSans-Roman;writing-mode:lr-tb;fill:#007f00;fill-opacity:1;fill-rule:nonzero;stroke:none"
         id="text62"><tspan
           x="0 20.52 28.83 37.139999 46.650002 58.98 67.290001 86.309998 105.3 117.06 132.66"
           y="0"
           id="tspan58">All rights </tspan><tspan
           x="0 11.73 30.18 38.490002 46.799999 65.790001 84.809998 103.8 112.11 127.71 146.78999 165.24001"
           y="37.5"
           id="tspan60">relinquished</tspan></text><text
         transform="translate(934.32678,213.76408)"
         style="font-variant:normal;font-weight:normal;font-size:30px;font-family:'Bitstream Vera Sans';-inkscape-font-specification:BitstreamVeraSans-Roman;writing-mode:lr-tb;fill:#ff6600;fill-opacity:1;fill-rule:nonzero;stroke:none"
         id="text68"><tspan
           x="0 20.52 28.83 37.139999 46.650002 58.98 67.290001 86.309998 105.3 117.06 132.66"
           y="0"
           id="tspan64">All rights </tspan><tspan
           x="0 11.73 30.18 41.939999 60.299999 68.610001 87.690002 106.14"
           y="37.5"
           id="tspan66">retained</tspan></text><text
         transform="translate(392.67256,27.292969)"
         style="font-variant:normal;font-weight:bold;font-size:30px;font-family:'Bitstream Vera Sans';-inkscape-font-specification:BitstreamVeraSans-Bold;writing-mode:lr-tb;fill:#000000;fill-opacity:1;fill-rule:nonzero;stroke:none"
         id="text72"><tspan
           x="0 23.1 33.360001 54.810001 76.139999 90.57 108.42 118.86 129.12 150.45 160.89 182.88 203.49001 225.03 244.56 259.35001 269.70001 291.14999 312.48001"
           y="0"
           id="tspan70">Rights in Copyright</tspan></text><path
         d="m 372.191,195.156 -45.488,12.996 45.488,12.996 -9.164,-9.164 H 485.93 v -8.129 l -122.18,-0.261 z"
         style="fill:#007f00;fill-opacity:1;fill-rule:evenodd;stroke:none"
         id="path74" /><text
         transform="translate(293.71583,242.88638)"
         style="font-variant:normal;font-weight:normal;font-size:22.5px;font-family:'Bitstream Vera Sans';-inkscape-font-specification:BitstreamVeraSans-Roman;writing-mode:lr-tb;fill:#007f00;fill-opacity:1;fill-rule:nonzero;stroke:none"
         id="text78"><tspan
           x="0 21.915001 35.662498 44.459999 58.297501 65.43 74.745003 80.977501 95.2425 109.485 118.305 130.005 137.1375 151.4025 160.7175 174.4875 188.73 197.55 211.3875"
           y="0"
           id="tspan76">more rights granted</tspan></text><path
         d="m 740.68,221.051 45.488,-12.996 -45.488,-12.996 9.164,9.164 H 626.941 v 8.129 l 122.18,0.257 z"
         style="fill:#ff6600;fill-opacity:1;fill-rule:evenodd;stroke:none"
         id="path80" /><text
         transform="translate(593.59583,242.98327)"
         style="font-variant:normal;font-weight:normal;font-size:22.5px;font-family:'Bitstream Vera Sans';-inkscape-font-specification:BitstreamVeraSans-Roman;writing-mode:lr-tb;fill:#ff6600;fill-opacity:1;fill-rule:nonzero;stroke:none"
         id="text84"><tspan
           x="0 21.915001 35.662498 44.459999 58.297501 65.43 74.745003 80.977501 95.2425 109.485 118.305 130.005 137.1375 145.98 159.8175 168.6375 182.4075 188.64 202.95 216.78751"
           y="0"
           id="tspan82">more rights retained</tspan></text></g></g></svg>
