<?xml version="1.0" encoding="UTF-8" standalone="no"?>
<svg
   xmlns:dc="http://purl.org/dc/elements/1.1/"
   xmlns:cc="http://creativecommons.org/ns#"
   xmlns:rdf="http://www.w3.org/1999/02/22-rdf-syntax-ns#"
   xmlns:svg="http://www.w3.org/2000/svg"
   xmlns="http://www.w3.org/2000/svg"
   xmlns:sodipodi="http://sodipodi.sourceforge.net/DTD/sodipodi-0.dtd"
   xmlns:inkscape="http://www.inkscape.org/namespaces/inkscape"
   version="1.1"
   id="svg2"
   xml:space="preserve"
   width="697"
   height="210"
   viewBox="0 0 697 210"
   sodipodi:docname="branches.svg"
   inkscape:version="1.0.2 (e86c870879, 2021-01-15)"><metadata
     id="metadata8"><rdf:RDF><cc:Work
         rdf:about=""><dc:format>image/svg+xml</dc:format><dc:type
           rdf:resource="http://purl.org/dc/dcmitype/StillImage" /><dc:title></dc:title></cc:Work></rdf:RDF></metadata><defs
     id="defs6" /><sodipodi:namedview
     pagecolor="#ffffff"
     bordercolor="#666666"
     borderopacity="1"
     objecttolerance="10"
     gridtolerance="10"
     guidetolerance="10"
     inkscape:pageopacity="0"
     inkscape:pageshadow="2"
     inkscape:window-width="1200"
     inkscape:window-height="1855"
     id="namedview4"
     showgrid="false"
     inkscape:zoom="0.59906249"
     inkscape:cx="424.9164"
     inkscape:cy="436.81577"
     inkscape:window-x="0"
     inkscape:window-y="0"
     inkscape:window-maximized="1"
     inkscape:current-layer="g10" /><g
     id="g10"
     inkscape:groupmode="layer"
     inkscape:label="branches"
     transform="matrix(1.3333333,0,0,-1.3333333,0,210)"><path
       d="M 159.75,109.5 C 159.75,92.551 145.949,78.75 129,78.75 m 30.75,30.75 c 0,16.949 13.801,30.75 30.75,30.75 h 120.301"
       style="fill:none;stroke:#404040;stroke-width:3;stroke-linecap:butt;stroke-linejoin:miter;stroke-miterlimit:10;stroke-dasharray:none;stroke-opacity:1"
       id="path16" /><path
       d="m 238.801,140.25 c 0,-8.699 -7.051,-15.75 -15.75,-15.75 -8.699,0 -15.75,7.051 -15.75,15.75 0,8.699 7.051,15.75 15.75,15.75 8.699,0 15.75,-7.051 15.75,-15.75 z"
       style="fill:#b18be8;fill-opacity:1;fill-rule:nonzero;stroke:#404040;stroke-width:3;stroke-linecap:butt;stroke-linejoin:miter;stroke-miterlimit:10;stroke-dasharray:none;stroke-opacity:1"
       id="path20" /><path
       d="m 310.801,140.25 c 0,-8.699 -7.051,-15.75 -15.75,-15.75 -8.699,0 -15.75,7.051 -15.75,15.75 0,8.699 7.051,15.75 15.75,15.75 8.699,0 15.75,-7.051 15.75,-15.75 z"
       style="fill:#b18be8;fill-opacity:1;fill-rule:nonzero;stroke:#404040;stroke-width:3;stroke-linecap:butt;stroke-linejoin:miter;stroke-miterlimit:10;stroke-dasharray:none;stroke-opacity:1"
       id="path24" /><path
       d="m 370.273,48 c 0,16.949 -13.796,30.75 -30.75,30.75 M 370.273,48 c 0,-16.949 13.801,-30.75 30.75,-30.75 h 120.301"
       style="fill:none;stroke:#404040;stroke-width:3;stroke-linecap:butt;stroke-linejoin:miter;stroke-miterlimit:10;stroke-dasharray:none;stroke-opacity:1"
       id="path28" /><path
       d="m 449.25,17.25 c 0,-8.699 -7.051,-15.75 -15.75,-15.75 -8.699,0 -15.75,7.051 -15.75,15.75 0,8.699 7.051,15.75 15.75,15.75 8.699,0 15.75,-7.051 15.75,-15.75 z"
       style="fill:#4ed1a1;fill-opacity:1;fill-rule:nonzero;stroke:#404040;stroke-width:3;stroke-linecap:butt;stroke-linejoin:miter;stroke-miterlimit:10;stroke-dasharray:none;stroke-opacity:1"
       id="path32" /><path
       d="m 521.25,17.25 c 0,-8.699 -7.051,-15.75 -15.75,-15.75 -8.699,0 -15.75,7.051 -15.75,15.75 0,8.699 7.051,15.75 15.75,15.75 8.699,0 15.75,-7.051 15.75,-15.75 z"
       style="fill:#4ed1a1;fill-opacity:1;fill-rule:nonzero;stroke:#404040;stroke-width:3;stroke-linecap:butt;stroke-linejoin:miter;stroke-miterlimit:10;stroke-dasharray:none;stroke-opacity:1"
       id="path36" /><path
       d="M 1.5,78.75 H 417.75"
       style="fill:none;stroke:#404040;stroke-width:3;stroke-linecap:butt;stroke-linejoin:miter;stroke-miterlimit:10;stroke-dasharray:none;stroke-opacity:1"
       id="path40" /><path
       d="M 33,78.75 C 33,70.051 25.949,63 17.25,63 8.551,63 1.5,70.051 1.5,78.75 1.5,87.449 8.551,94.5 17.25,94.5 25.949,94.5 33,87.449 33,78.75 Z"
       style="fill:#b3e3ff;fill-opacity:1;fill-rule:nonzero;stroke:#404040;stroke-width:3;stroke-linecap:butt;stroke-linejoin:miter;stroke-miterlimit:10;stroke-dasharray:none;stroke-opacity:1"
       id="path44" /><path
       d="M 105,78.75 C 105,70.051 97.949,63 89.25,63 80.551,63 73.5,70.051 73.5,78.75 c 0,8.699 7.051,15.75 15.75,15.75 8.699,0 15.75,-7.051 15.75,-15.75 z"
       style="fill:#b3e3ff;fill-opacity:1;fill-rule:nonzero;stroke:#404040;stroke-width:3;stroke-linecap:butt;stroke-linejoin:miter;stroke-miterlimit:10;stroke-dasharray:none;stroke-opacity:1"
       id="path48" /><path
       d="M 238.051,78.75 C 238.051,70.051 231,63 222.301,63 c -8.699,0 -15.75,7.051 -15.75,15.75 0,8.699 7.051,15.75 15.75,15.75 8.699,0 15.75,-7.051 15.75,-15.75 z"
       style="fill:#b3e3ff;fill-opacity:1;fill-rule:nonzero;stroke:#404040;stroke-width:3;stroke-linecap:butt;stroke-linejoin:miter;stroke-miterlimit:10;stroke-dasharray:none;stroke-opacity:1"
       id="path52" /><path
       d="m 310.801,78.75 c 0,-8.699 -7.051,-15.75 -15.75,-15.75 -8.699,0 -15.75,7.051 -15.75,15.75 0,8.699 7.051,15.75 15.75,15.75 8.699,0 15.75,-7.051 15.75,-15.75 z"
       style="fill:#b3e3ff;fill-opacity:1;fill-rule:nonzero;stroke:#404040;stroke-width:3;stroke-linecap:butt;stroke-linejoin:miter;stroke-miterlimit:10;stroke-dasharray:none;stroke-opacity:1"
       id="path56" /><path
       d="M 449.25,78.75 C 449.25,70.051 442.199,63 433.5,63 c -8.699,0 -15.75,7.051 -15.75,15.75 0,8.699 7.051,15.75 15.75,15.75 8.699,0 15.75,-7.051 15.75,-15.75 z"
       style="fill:#b3e3ff;fill-opacity:1;fill-rule:nonzero;stroke:#404040;stroke-width:3;stroke-linecap:butt;stroke-linejoin:miter;stroke-miterlimit:10;stroke-dasharray:none;stroke-opacity:1"
       id="path60" /></g></svg>
